<svg width="554" height="489" viewBox="0 0 554 489" fill="none" xmlns="http://www.w3.org/2000/svg">
<path d="M29.5905 438.525H0.0800781V438.803H29.5905V438.525Z" fill="#EBEBEB"/>
<path d="M283.491 434.766H165.171V435.045H283.491V434.766Z" fill="#EBEBEB"/>
<path d="M74.2736 451.47H21.2384V451.749H74.2736V451.47Z" fill="#EBEBEB"/>
<path d="M553.261 449.104H493.126V449.382H553.261V449.104Z" fill="#EBEBEB"/>
<path d="M488.672 449.104H471.968V449.382H488.672V449.104Z" fill="#EBEBEB"/>
<path d="M443.293 443.258H411.277V443.536H443.293V443.258Z" fill="#EBEBEB"/>
<path d="M395.13 443.258H327.757V443.536H395.13V443.258Z" fill="#EBEBEB"/>
<path d="M48.6608 229.029H1.61121V425.301H48.6608V229.029Z" fill="#E6E6E6"/>
<path d="M9.40641 425.301H1.61121V407.622H17.6192L9.40641 425.301Z" fill="#F0F0F0"/>
<path d="M359.912 229.029H312.863V425.301H359.912V229.029Z" fill="#E6E6E6"/>
<path d="M319.683 229.029H1.61121V418.48H319.683V229.029Z" fill="#F0F0F0"/>
<path d="M313.698 237.381H7.73608V289.302H313.698V237.381Z" fill="#E6E6E6"/>
<path d="M313.698 237.52H7.73608V244.619H313.698V237.52Z" fill="#E0E0E0"/>
<path d="M311.888 425.301H319.683V407.622H303.675L311.888 425.301Z" fill="#F0F0F0"/>
<path d="M313.698 297.794H7.73608V349.715H313.698V297.794Z" fill="#E6E6E6"/>
<path d="M313.698 297.794H7.73608V304.893H313.698V297.794Z" fill="#E0E0E0"/>
<path d="M313.698 358.206H7.73608V410.128H313.698V358.206Z" fill="#E6E6E6"/>
<path d="M313.698 358.206H7.73608V365.306H313.698V358.206Z" fill="#E0E0E0"/>
<path d="M425.336 425.301H534.329L543.934 83.008H435.08L425.336 425.301Z" fill="#E6E6E6"/>
<path d="M421.995 425.301H530.989L540.733 83.008H431.739L421.995 425.301Z" fill="#F0F0F0"/>
<path d="M524.446 415.557L533.634 92.752H438.282L429.094 415.557H524.446Z" fill="#FAFAFA"/>
<path d="M354.344 0.462402H40.0304V175.715H354.344V0.462402Z" fill="#F0F0F0"/>
<path d="M348.915 0.462402H28.6161V175.715H348.915V0.462402Z" fill="#F5F5F5"/>
<path d="M333.046 15.0784H44.4849V161.238H333.046V15.0784Z" fill="white"/>
<path d="M43.7889 221.234C49.7854 221.234 54.6465 216.373 54.6465 210.376C54.6465 204.38 49.7854 199.518 43.7889 199.518C37.7924 199.518 32.9313 204.38 32.9313 210.376C32.9313 216.373 37.7924 221.234 43.7889 221.234Z" fill="#F0F0F0"/>
<path d="M61.1889 226.245C67.1854 226.245 72.0465 221.384 72.0465 215.387C72.0465 209.391 67.1854 204.53 61.1889 204.53C55.1924 204.53 50.3313 209.391 50.3313 215.387C50.3313 221.384 55.1924 226.245 61.1889 226.245Z" fill="#E6E6E6"/>
<path d="M76.3616 218.728C82.3581 218.728 87.2193 213.867 87.2193 207.87C87.2193 201.874 82.3581 197.013 76.3616 197.013C70.3652 197.013 65.504 201.874 65.504 207.87C65.504 213.867 70.3652 218.728 76.3616 218.728Z" fill="#F0F0F0"/>
<path d="M94.7361 214.413C94.7361 214.413 93.7617 229.029 57.1521 229.029C20.5425 229.029 19.5681 214.413 19.5681 214.413H94.7361Z" fill="#E6E6E6"/>
<path d="M275 488.08C424.067 488.08 544.909 481.038 544.909 472.35C544.909 463.663 424.067 456.621 275 456.621C125.934 456.621 5.09131 463.663 5.09131 472.35C5.09131 481.038 125.934 488.08 275 488.08Z" fill="#F5F5F5"/>
<path d="M449.835 472.35H294.766C284.326 472.35 275.835 464.555 275.696 454.672C275.696 454.394 275.696 454.115 275.696 453.837L293.096 35.68C293.653 25.3792 302.562 17.3056 313.558 17.1664H468.488C478.928 17.1664 487.419 25.1008 487.559 34.8449C487.559 35.1233 487.559 35.4016 487.559 35.68L470.298 453.837C469.741 464.138 460.693 472.211 449.835 472.35Z" fill="#263238"/>
<path d="M277.366 60.4577H275.835L276.81 35.6801C277.506 22.7345 288.781 12.5729 302.562 12.4337V13.8257C289.616 13.9649 278.898 23.5697 278.341 35.6801L277.366 60.4577Z" fill="#454545"/>
<path d="M325.808 12.2944H313.141V13.6864H325.808V12.2944Z" fill="#454545"/>
<path d="M438.838 472.35H283.909C273.469 472.35 264.978 464.555 264.838 454.672C264.838 454.394 264.838 454.115 264.838 453.837L282.099 35.68C282.656 25.3792 291.565 17.3056 302.562 17.1664H457.491C467.931 17.1664 476.422 25.1008 476.562 34.8449C476.562 35.1233 476.562 35.4016 476.562 35.68L459.301 453.837C458.744 464.138 449.835 472.211 438.838 472.35Z" fill="#454545"/>
<path opacity="0.8" d="M443.71 424.326H282.934C277.088 424.326 272.355 420.011 272.355 414.443C272.355 414.304 272.355 414.165 272.355 413.886L287.389 51.1312C287.667 45.424 292.678 40.8304 298.803 40.8304H459.579C465.426 40.8304 470.158 45.2849 470.158 50.7137C470.158 50.8529 470.158 50.992 470.158 51.2704L455.125 414.026C454.986 419.733 449.835 424.187 443.71 424.326Z" fill="white"/>
<path opacity="0.4" d="M375.502 424.326H335.413L403.064 40.8304H443.154L375.502 424.326Z" fill="white"/>
<path opacity="0.4" d="M328.314 424.326H308.269L375.92 40.8304H395.965L328.314 424.326Z" fill="white"/>
<path d="M401.254 312.131H322.189C318.57 312.131 315.646 308.373 315.507 303.501L313.28 234.736C313.141 229.029 316.621 224.157 320.797 224.157H409.885C414.061 224.157 417.123 229.029 416.566 234.736L408.771 303.501C408.075 308.373 404.874 312.131 401.254 312.131Z" fill="#454545"/>
<path d="M401.254 314.776H322.189C317.038 314.776 312.862 309.904 312.723 303.64L310.496 234.875C310.218 230.978 311.749 227.219 314.533 224.296C316.203 222.626 318.43 221.651 320.797 221.651H409.885C412.251 221.651 414.478 222.765 416.149 224.435C418.794 227.498 419.907 231.395 419.35 235.154L411.555 303.918C410.72 310.043 406.266 314.776 401.254 314.776ZM320.658 226.662C319.822 226.662 318.987 227.08 318.291 227.776C316.621 229.725 315.646 232.091 315.925 234.597L318.152 303.362C318.291 306.702 319.962 309.486 322.05 309.486H401.115C403.064 309.486 405.291 306.981 405.709 303.083L413.504 234.318C413.922 231.952 413.226 229.586 411.694 227.637C411.138 227.08 410.442 226.662 409.606 226.662H320.658V226.662Z" fill="#454545"/>
<path d="M408.632 306.146H408.354C406.822 306.006 405.709 304.754 405.848 303.222L414.478 227.637C415.87 215.805 423.805 206.896 432.992 206.896H438.978C440.509 206.896 441.762 208.01 441.762 209.541C441.762 210.933 440.509 212.186 438.978 212.186H432.992C426.728 212.186 421.16 219.285 420.046 228.333L411.416 303.918C411.416 305.171 410.163 306.146 408.632 306.146Z" fill="#454545"/>
<path d="M338.475 337.744C335.413 337.744 332.35 336.491 330.262 334.264C326.643 330.784 324.555 324.938 324.834 318.813C325.251 308.373 331.933 300.021 339.867 300.021C342.93 300.021 345.992 301.274 348.08 303.501C351.699 306.981 353.787 312.827 353.509 318.952C353.091 329.253 346.27 337.744 338.475 337.744ZM339.867 302.248C333.325 302.248 327.618 309.765 327.339 318.952C327.061 324.52 328.87 329.67 332.072 332.733C333.742 334.403 336.109 335.517 338.475 335.517C345.018 335.517 350.725 328 351.003 318.813C351.282 313.245 349.472 308.094 346.27 305.032C344.739 303.362 342.373 302.248 339.867 302.248Z" fill="#454545"/>
<path d="M381.627 337.744C378.565 337.744 375.503 336.491 373.415 334.264C369.795 330.784 367.707 324.938 367.986 318.813C368.403 308.373 375.085 300.021 383.019 300.021C386.082 300.021 389.144 301.274 391.232 303.501C394.851 306.981 396.939 312.827 396.661 318.952C396.243 329.253 389.562 337.744 381.627 337.744ZM383.159 302.248C376.616 302.248 370.909 309.765 370.631 318.952C370.352 324.52 372.162 329.67 375.363 332.733C377.034 334.403 379.4 335.517 381.767 335.517C388.309 335.517 394.016 328 394.294 318.813C394.573 313.245 392.763 308.094 389.562 305.032C387.891 303.362 385.525 302.248 383.159 302.248Z" fill="#454545"/>
<path d="M399.625 157.112C401.762 132.913 389.092 112.024 371.325 110.455C353.559 108.887 337.425 127.232 335.288 151.43C333.151 175.629 345.821 196.518 363.587 198.087C381.353 199.656 397.488 181.311 399.625 157.112Z" fill="#66D836"/>
<path d="M365.619 200.771C357.963 200.632 350.725 197.57 345.574 192.28C336.666 183.51 331.654 169.312 332.211 154.139C333.186 128.526 349.89 107.646 369.238 107.646C376.894 107.786 384.133 110.848 389.283 116.138C398.192 124.907 403.203 139.106 402.646 154.278C401.533 180.03 384.968 200.771 365.619 200.771ZM369.099 112.936C352.813 112.936 338.614 131.589 337.64 154.418C337.083 168.198 341.538 181.005 349.472 188.661C353.509 192.976 359.355 195.482 365.48 195.621C381.766 195.621 395.965 176.968 396.939 154.139C397.496 140.358 393.042 127.552 385.107 119.896C381.21 115.581 375.363 113.075 369.099 112.936Z" fill="white"/>
<path d="M345.435 153.304C345.435 153.304 357.824 164.44 362.696 178.778C367.011 167.642 373.414 152.051 388.726 134.512C370.213 146.066 363.113 160.542 363.113 160.542C357.963 156.645 351.838 154.278 345.435 153.304Z" fill="white"/>
<path d="M361.861 459.405C359.216 459.405 356.71 458.291 354.901 456.482C352.117 453.558 350.586 449.522 350.864 445.624C351.142 437.968 356.571 431.843 362.835 431.843C365.48 431.843 367.986 432.957 369.795 434.767C372.579 437.69 374.11 441.587 373.832 445.624C373.554 453.28 368.264 459.405 361.861 459.405ZM362.974 433.375C357.546 433.375 352.813 438.942 352.534 445.763C352.256 449.382 353.509 452.863 356.154 455.647C357.685 457.178 359.773 458.152 362 458.152C367.429 458.152 372.162 452.584 372.44 445.763C372.718 442.144 371.466 438.664 368.821 435.88C367.29 434.21 365.202 433.375 362.974 433.375Z" fill="white"/>
<path d="M379.539 34.4272C378.286 34.4272 377.173 33.8704 376.338 33.0352C375.085 31.7824 374.389 29.9728 374.528 28.1632C374.667 24.8224 377.034 22.0384 379.957 22.0384C381.21 22.0384 382.323 22.5952 383.159 23.4304C384.411 24.6832 385.107 26.4928 384.968 28.3024C384.829 31.7824 382.323 34.4272 379.539 34.4272ZM379.957 23.7088C377.869 23.7088 376.198 25.7968 376.059 28.4416C375.92 29.8336 376.477 31.0864 377.451 32.2C378.008 32.7568 378.704 33.0352 379.539 33.0352C381.627 33.0352 383.298 30.9472 383.437 28.3024C383.576 26.9104 383.019 25.5184 382.045 24.544C381.488 23.9872 380.653 23.7088 379.957 23.7088Z" fill="white"/>
<path d="M189.671 65.8864C173.802 63.7984 165.171 73.4032 169.626 90.9424C173.941 107.507 165.589 105.28 164.058 120.87C162.527 136.461 175.333 137.157 179.509 149.963C183.685 162.77 206.792 177.246 215.84 170.704C224.888 164.162 242.845 165.693 244.515 144.117C246.186 122.541 229.064 121.288 234.911 109.595C242.567 94.2832 225.584 98.0416 225.584 78.5536C225.863 62.6848 203.034 45.7024 189.671 65.8864Z" fill="#263238"/>
<path d="M169.626 149.128C169.347 155.81 168.651 162.213 167.677 168.755C166.842 175.576 165.311 182.258 163.223 188.661C162.527 190.61 161.691 192.419 160.717 194.09C160.021 195.342 159.186 196.317 158.211 197.291L157.655 197.709L157.376 197.848L157.237 197.987L156.68 198.405L155.567 199.24C152.643 201.189 149.581 202.72 146.379 204.112C140.255 206.757 133.991 208.845 127.448 210.376L125.221 204.251C130.65 201.189 136.357 198.126 141.507 194.786C144.013 193.254 146.379 191.584 148.746 189.774L149.442 189.078L149.859 188.8V188.661C149.859 188.661 149.999 188.382 150.138 187.965C150.695 186.851 151.112 185.738 151.391 184.624C152.226 181.84 152.783 178.917 153.2 175.994C153.757 172.931 154.175 169.869 154.453 166.806C155.149 160.682 155.706 154.278 156.263 148.154L169.626 149.128Z" fill="#FFB573"/>
<path d="M129.258 204.53L118.678 201.189L120.627 213.995C120.627 213.995 127.587 213.16 130.928 209.262L129.258 204.53Z" fill="#FFB573"/>
<path d="M109.909 209.541L110.466 211.211C111.162 213.16 113.111 214.413 115.199 214.413L120.627 214.134L118.679 201.328L112.693 203.694C110.326 204.53 109.213 207.174 109.909 209.541Z" fill="#FFB573"/>
<path d="M182.154 136.739C182.154 140.776 180.205 148.71 178.535 154.696C177.282 159.011 176.307 162.213 176.307 162.213L173.802 161.656L153.757 156.506C153.479 146.205 153.896 134.79 164.058 127.97C170.6 123.654 182.154 129.501 182.154 136.739Z" fill="#454545"/>
<g opacity="0.5">
<path opacity="0.5" d="M182.154 136.739C182.154 140.776 180.205 148.71 178.535 154.696C177.282 159.011 176.307 162.213 176.307 162.213L173.802 161.656L153.757 156.506C153.479 146.205 153.896 134.79 164.058 127.97C170.6 123.654 182.154 129.501 182.154 136.739Z" fill="black"/>
</g>
<path opacity="0.3" d="M182.154 137.435C180.901 136.043 177.839 135.765 171.435 137.853C162.109 140.776 159.464 150.938 159.464 157.898L173.941 161.517L175.194 161.795L176.447 162.074C176.447 162.074 177.003 160.403 177.699 158.037C177.978 157.062 178.395 155.81 178.674 154.557C180.205 148.989 182.015 141.611 182.154 137.435Z" fill="black"/>
<path d="M140.95 459.962L128.562 455.646L136.357 429.059L148.606 433.374L140.95 459.962Z" fill="#FFB573"/>
<path d="M304.928 428.363L294.906 435.88L274.443 415.139L284.466 407.622L304.928 428.363Z" fill="#FFB573"/>
<path d="M290.869 432.818L301.727 423.909C302.144 423.63 302.701 423.63 302.979 423.909L311.331 431.426C312.167 432.122 312.167 433.514 311.331 434.21L311.192 434.349C307.434 437.411 305.346 438.664 300.613 442.562C297.69 444.928 291.565 450.774 287.528 454.115C283.491 457.456 280.011 453.698 281.403 451.888C287.528 444.093 289.059 438.942 289.755 434.627C289.755 433.931 290.173 433.235 290.869 432.818Z" fill="#F8931E"/>
<path d="M127.727 451.749L141.368 457.456C141.925 457.734 142.203 458.152 142.064 458.709L140.533 470.68C140.394 471.654 139.559 472.35 138.445 472.35C138.306 472.35 138.027 472.35 137.888 472.211C133.016 470.262 130.789 469.288 124.803 466.782L106.429 459.126C101.418 457.038 102.531 451.61 104.758 452.027C114.781 453.837 121.323 453.28 125.36 451.749C126.195 451.47 127.031 451.47 127.727 451.749Z" fill="#F8931E"/>
<path opacity="0.2" d="M136.357 429.059L132.32 442.701L144.291 448.13L148.606 433.374L136.357 429.059Z" fill="black"/>
<path opacity="0.2" d="M284.466 407.622L274.443 415.139L285.023 425.858L295.045 418.341L284.466 407.622Z" fill="black"/>
<path d="M219.877 201.746L169.347 202.442C162.387 163.326 160.856 144.534 160.856 135.626C160.856 131.032 164.058 126.995 168.651 126.16C171.714 125.603 175.611 124.907 179.509 124.35C180.762 124.211 182.154 124.072 183.546 123.794C191.202 123.098 198.858 122.958 206.514 123.515C207.627 123.515 208.741 123.654 209.854 123.654C215.005 123.933 219.738 124.629 223.218 125.186C225.723 125.603 227.533 127.97 227.115 130.475C227.115 130.614 227.115 130.614 227.115 130.754C225.584 137.714 224.471 143.838 223.496 149.267C221.965 157.898 220.991 164.997 220.434 171.122C219.181 181.283 219.181 191.584 219.877 201.746Z" fill="#454545"/>
<g opacity="0.9">
<path opacity="0.9" d="M219.877 201.746L169.347 202.442C162.387 163.326 160.856 144.534 160.856 135.626C160.856 131.032 164.058 126.995 168.651 126.16C171.714 125.603 175.611 124.907 179.509 124.35C180.762 124.211 182.154 124.072 183.546 123.794C191.202 123.098 198.858 122.958 206.514 123.515C207.627 123.515 208.741 123.654 209.854 123.654C215.005 123.933 219.738 124.629 223.218 125.186C225.723 125.603 227.533 127.97 227.115 130.475C227.115 130.614 227.115 130.614 227.115 130.754C225.584 137.714 224.471 143.838 223.496 149.267C221.965 157.898 220.991 164.997 220.434 171.122C219.181 181.283 219.181 191.584 219.877 201.746Z" fill="#FFA800"/>
</g>
<path opacity="0.3" d="M220.016 171.261C217.51 163.605 217.65 147.736 220.294 142.586L223.078 149.267C221.547 158.037 220.573 164.997 220.016 171.261Z" fill="black"/>
<path d="M202.477 107.786C202.198 114.05 203.034 120.453 206.235 123.515C206.235 123.515 200.807 130.614 188 137.574C181.179 131.032 183.267 123.794 183.267 123.794C191.48 121.706 191.619 116.277 189.253 107.229L195.795 104.584C197.466 103.053 199.971 103.331 201.503 105.002C202.199 105.698 202.616 106.811 202.477 107.786Z" fill="#FFB573"/>
<path opacity="0.2" d="M195.795 104.584C197.466 103.053 199.971 103.331 201.503 105.002C202.059 105.698 202.338 106.394 202.477 107.229C199.554 111.683 195.378 115.024 190.506 116.973C190.645 113.632 190.227 110.291 189.253 107.09L195.795 104.584Z" fill="black"/>
<path d="M214.309 89.5504C209.854 101.104 208.323 106.115 200.389 110.291C188.557 116.555 175.333 108.621 176.307 95.9536C177.142 84.5392 184.102 67.5568 197.187 66.5824C206.514 65.7472 214.587 72.568 215.422 81.8944C215.701 84.5392 215.283 87.184 214.309 89.5504Z" fill="#FFB573"/>
<path d="M192.176 66.5824C183.963 78.136 207.488 75.352 206.374 83.4256C205.678 88.4368 198.579 97.624 211.107 99.2944C223.635 100.965 226.558 80.7808 220.155 73.1248C213.752 65.4688 200.25 60.5968 192.176 66.5824Z" fill="#263238"/>
<path d="M194.821 66.1648C193.151 70.3408 184.103 76.048 180.762 74.9344C181.736 70.0624 190.227 65.3296 194.821 66.1648Z" fill="#263238"/>
<path d="M213.474 101.382C212.221 103.47 210.272 104.862 207.906 105.419C204.843 106.115 203.451 103.331 204.426 100.547C205.261 98.0416 207.906 94.5616 210.968 95.1184C213.195 95.536 214.587 97.624 214.17 99.8512C214.03 100.408 213.891 100.965 213.474 101.382Z" fill="#FFB573"/>
<path d="M169.347 202.442C169.347 202.442 160.856 276.078 152.922 321.875C146.797 357.789 131.067 432.539 131.067 432.539L151.391 439.778C151.391 439.778 174.637 361.826 178.674 328.557C195.099 280.533 206.792 202.024 206.792 202.024L169.347 202.442Z" fill="#3A3A3A"/>
<path d="M127.866 437.55L151.251 445.763L154.453 438.246L128.979 428.642L127.866 437.55Z" fill="#263238"/>
<path opacity="0.3" d="M194.96 224.296L187.443 238.773C184.659 249.77 185.355 276.357 188.835 293.2C195.099 267.866 200.111 241.139 203.312 223.182L194.96 224.296Z" fill="black"/>
<path d="M180.344 202.442C180.344 202.442 189.392 284.848 206.375 330.506C214.866 353.474 277.784 421.403 277.784 421.403L291.983 409.989C291.983 409.989 252.032 341.363 234.632 323.406C227.533 283.595 236.442 223.878 219.877 201.467L180.344 202.442Z" fill="#454545"/>
<path d="M278.898 426.414L295.602 412.773L291.147 405.395L272.912 421.264L278.898 426.414Z" fill="#263238"/>
<path d="M220.712 198.683L223.079 203.138C223.218 203.416 222.8 203.834 222.243 203.834L169.208 204.669C168.791 204.669 168.373 204.39 168.373 204.112L167.816 199.658C167.816 199.379 168.234 199.101 168.651 199.101L219.877 198.405C220.155 198.266 220.573 198.544 220.712 198.683Z" fill="#263238"/>
<path d="M213.891 204.53H215.283C215.562 204.53 215.701 204.39 215.701 204.251L215.005 198.405C215.005 198.266 214.727 198.126 214.448 198.126H213.056C212.778 198.126 212.639 198.266 212.639 198.405L213.335 204.251C213.335 204.39 213.613 204.53 213.891 204.53Z" fill="#454545"/>
<path d="M172.966 205.086H174.358C174.637 205.086 174.776 204.947 174.776 204.808L174.08 198.962C174.08 198.822 173.802 198.683 173.523 198.683H172.131C171.853 198.683 171.574 198.822 171.714 198.962L172.41 204.808C172.549 204.947 172.688 205.086 172.966 205.086Z" fill="#454545"/>
<path d="M193.429 204.808H194.821C195.099 204.808 195.378 204.669 195.239 204.53L194.543 198.683C194.543 198.544 194.264 198.405 193.986 198.405H192.594C192.315 198.405 192.176 198.544 192.176 198.683L192.872 204.53C192.872 204.669 193.151 204.808 193.429 204.808Z" fill="#454545"/>
<path d="M193.986 86.7664C193.707 87.7408 192.872 88.2976 192.315 88.1584C191.759 88.0192 191.48 87.0448 191.759 86.0704C192.037 85.096 192.872 84.5392 193.429 84.6784C193.986 84.8176 194.264 85.792 193.986 86.7664Z" fill="#263238"/>
<path d="M183.128 83.4256C182.85 84.4 182.015 84.9568 181.458 84.8176C180.901 84.6784 180.623 83.704 180.901 82.7296C181.179 81.7552 182.015 81.1984 182.571 81.3376C183.128 81.4768 183.407 82.4512 183.128 83.4256Z" fill="#263238"/>
<path d="M182.85 81.4768L180.762 80.0848C180.762 80.0848 181.319 82.1728 182.85 81.4768Z" fill="#263238"/>
<path d="M185.773 85.9312C184.242 87.88 182.432 89.5504 180.483 90.9424C181.318 91.9168 182.432 92.6128 183.685 92.6128L185.773 85.9312Z" fill="#ED893E"/>
<path d="M186.887 98.0416C186.747 97.9024 186.747 97.9024 186.747 97.7632C186.747 97.624 187.026 97.4848 187.165 97.624C189.531 98.4592 192.176 98.0416 194.264 96.6496C194.403 96.5104 194.543 96.5104 194.682 96.6496C194.821 96.7888 194.821 96.928 194.682 97.0672C192.455 98.4592 189.531 98.8768 186.887 98.0416Z" fill="#263238"/>
<path d="M198.162 84.2608C198.023 84.2608 198.023 84.1216 198.023 83.9824C197.605 82.5904 196.491 81.4768 194.96 80.92C194.682 80.7808 194.403 80.5024 194.543 80.224C194.682 79.9456 194.96 79.6672 195.239 79.8064C197.048 80.3632 198.44 81.7552 199.136 83.5648C199.275 83.8432 199.136 84.2608 198.858 84.4C198.44 84.4 198.301 84.2608 198.162 84.2608Z" fill="#263238"/>
<path d="M179.927 77.1616C179.927 77.1616 179.927 77.0224 179.927 77.1616C179.927 76.744 180.066 76.4656 180.344 76.3264C182.154 75.9088 184.103 76.4656 185.495 77.8576C185.773 78.136 185.773 78.4144 185.495 78.6928C185.216 78.9712 184.938 78.9712 184.659 78.6928C183.546 77.7184 182.015 77.3008 180.483 77.5792C180.205 77.5792 179.927 77.44 179.927 77.1616Z" fill="#263238"/>
<path d="M131.903 132.146C129.815 128.805 128.005 122.262 131.624 118.643C135.243 115.024 137.888 113.91 137.053 107.507C136.218 101.104 145.962 101.243 146.797 96.3712C151.669 100.547 156.819 110.291 154.035 114.746C151.251 119.2 152.783 122.541 152.087 127.97C151.391 133.398 139.698 144.813 131.903 132.146Z" fill="#454545"/>
<path opacity="0.5" d="M131.903 132.146C129.815 128.805 128.005 122.262 131.624 118.643C135.243 115.024 137.888 113.91 137.053 107.507C136.218 101.104 145.962 101.243 146.797 96.3712C151.669 100.547 156.819 110.291 154.035 114.746C151.251 119.2 152.783 122.541 152.087 127.97C151.391 133.398 139.698 144.813 131.903 132.146Z" fill="#66D836"/>
<path d="M147.075 106.672C144.709 121.566 140.394 138.827 134.13 151.773C135.661 151.634 137.053 150.938 138.167 149.963C138.167 149.963 148.05 123.098 147.075 106.672Z" fill="#454545"/>
<path d="M127.17 139.523C124.107 137.157 120.071 131.728 121.88 127.134C123.69 122.541 125.917 120.453 122.715 114.746C119.514 109.038 128.701 105.698 127.727 100.826C133.851 102.914 142.203 110.152 141.229 115.302C140.254 120.453 142.899 123.098 144.291 128.248C145.683 133.398 139.141 148.293 127.17 139.523Z" fill="#454545"/>
<path opacity="0.6" d="M127.17 139.523C124.107 137.157 120.071 131.728 121.88 127.134C123.69 122.541 125.917 120.453 122.715 114.746C119.514 109.038 128.701 105.698 127.727 100.826C133.851 102.914 142.203 110.152 141.229 115.302C140.254 120.453 142.899 123.098 144.291 128.248C145.683 133.398 139.141 148.293 127.17 139.523Z" fill="#66D836"/>
<path d="M149.581 143.978C152.922 143.699 158.211 141.75 159.046 137.574C159.882 133.398 159.186 130.893 164.058 128.387C168.93 125.882 163.918 119.2 166.842 116.277C161.552 115.024 152.365 116.277 150.694 120.314C149.024 124.35 145.962 125.046 142.621 128.109C139.28 131.171 137.053 144.813 149.581 143.978Z" fill="#454545"/>
<path opacity="0.7" d="M149.581 143.978C152.922 143.699 158.211 141.75 159.046 137.574C159.882 133.398 159.186 130.893 164.058 128.387C168.93 125.882 163.918 119.2 166.842 116.277C161.552 115.024 152.365 116.277 150.694 120.314C149.024 124.35 145.962 125.046 142.621 128.109C139.28 131.171 137.053 144.813 149.581 143.978Z" fill="#66D836"/>
<path d="M131.207 116.277C133.712 129.362 134.826 144.813 132.599 156.923C134.13 156.645 135.383 155.81 136.357 154.557C136.357 154.557 137.749 129.918 131.207 116.277Z" fill="#454545"/>
<path d="M157.237 123.376C148.467 132.981 139.28 145.091 133.851 156.227C133.155 155.114 132.738 153.861 133.016 152.469C133.016 152.469 145.822 131.45 157.237 123.376Z" fill="#454545"/>
<path d="M117.982 136.461C114.085 134.234 106.29 140.358 110.326 147.318C114.363 154.278 122.854 157.619 126.752 153.861C132.181 152.886 134.408 144.256 131.206 136.739C128.005 129.222 118.539 132.006 117.982 136.461Z" fill="#DD1D31"/>
<path d="M117.982 136.461C117.982 136.461 116.59 132.006 118.818 130.475C119.096 130.893 119.374 131.31 119.653 131.728C119.653 131.728 118.122 132.146 117.982 136.461Z" fill="#263238"/>
<path d="M162.527 124.629C162.109 134.234 152.226 141.472 141.507 143.838C140.811 144.534 140.394 145.37 140.115 146.205C139.976 146.622 140.115 147.179 140.394 147.458C141.229 148.154 142.203 148.571 143.178 148.85C148.885 148.989 154.314 147.04 158.629 143.421C164.197 139.106 169.208 130.754 167.677 126.856C166.146 122.958 164.754 124.211 164.197 121.288C163.919 120.035 163.779 118.782 163.779 117.53C163.779 117.53 162.387 118.226 162.109 119.061C162.527 120.174 162.666 121.566 162.527 124.629Z" fill="#FFCE00"/>
<path opacity="0.2" d="M167.816 126.856C167.399 125.742 166.842 124.907 166.007 124.072C166.146 127.274 165.311 131.032 161.831 136.6C158.211 142.446 148.467 147.597 140.115 147.04C140.115 147.179 140.255 147.318 140.394 147.318C141.229 148.014 142.203 148.432 143.178 148.71C148.885 148.85 154.314 146.901 158.629 143.282C164.197 139.245 169.347 130.754 167.816 126.856Z" fill="black"/>
<path d="M162.526 121.01C162.387 120.314 162.109 119.618 161.83 118.922C162.387 118.226 163.222 117.669 164.058 117.39V119.618C164.058 119.618 163.222 120.87 162.526 121.01Z" fill="#161C1E"/>
<path d="M140.394 145.23C140.115 145.509 139.976 145.648 139.837 145.926C139.698 146.483 139.837 147.179 140.254 147.458C140.394 147.597 140.672 147.736 140.95 147.736C140.672 147.318 140.533 146.901 140.394 146.344C140.394 146.066 140.394 145.648 140.394 145.23Z" fill="#263238"/>
<path d="M170.182 128.944C167.677 138.131 156.541 143.282 145.683 143.282C144.848 143.838 144.291 144.534 143.734 145.37C143.456 145.787 143.456 146.205 143.734 146.622C144.43 147.458 145.266 148.154 146.24 148.571C147.354 148.85 153.896 150.659 162.526 146.622C168.79 143.56 175.611 136.461 174.915 132.285C174.219 128.109 172.688 129.083 172.688 126.16C172.549 124.907 172.688 123.654 172.966 122.402C172.27 122.541 171.574 122.958 171.018 123.515C171.157 124.629 170.878 125.882 170.182 128.944Z" fill="#FFCE00"/>
<path opacity="0.2" d="M174.776 132.285C174.637 131.171 174.219 130.058 173.662 129.222C173.106 132.285 171.574 135.904 166.981 140.637C162.248 145.509 151.669 148.571 143.456 146.344C143.456 146.483 143.595 146.622 143.595 146.762C144.291 147.597 145.126 148.293 146.101 148.71C147.214 148.989 153.757 150.798 162.387 146.762C168.79 143.56 175.472 136.461 174.776 132.285Z" fill="black"/>
<path d="M170.878 125.464C170.878 125.464 170.739 123.794 170.6 123.237C171.296 122.68 172.131 122.262 173.106 122.123L172.549 124.35C172.688 124.35 171.714 125.464 170.878 125.464Z" fill="#141A1C"/>
<path d="M144.291 144.534C144.291 144.534 143.734 144.952 143.595 145.091C143.317 145.648 143.317 146.205 143.734 146.762C144.013 147.179 144.291 147.179 144.291 147.179C144.152 146.762 144.013 146.205 144.013 145.648C144.013 145.23 144.291 144.534 144.291 144.534Z" fill="#263238"/>
<path d="M176.614 139.24L108.626 148.58L119.084 224.704L187.072 215.364L176.614 139.24Z" fill="#454545"/>
<path opacity="0.8" d="M176.614 139.24L108.626 148.58L119.084 224.704L187.072 215.364L176.614 139.24Z" fill="#EAC38C"/>
<path opacity="0.2" d="M176.572 139.334L156.576 142.081L167.014 218.067L187.011 215.32L176.572 139.334Z" fill="#454545"/>
<path opacity="0.2" d="M187.026 215.387L176.029 209.402L166.563 140.637L176.586 139.245L187.026 215.387Z" fill="#454545"/>
<path opacity="0.3" d="M176.029 209.402L166.981 218.171L187.026 215.387L176.029 209.402Z" fill="#454545"/>
<path d="M198.022 204.669L187.722 200.632L188.696 213.578C188.696 213.578 195.656 213.299 199.275 209.541L198.022 204.669Z" fill="#FFB573"/>
<path d="M230.735 140.08C233.519 147.875 235.885 155.67 237.973 163.605C238.947 167.642 239.922 171.678 240.757 175.854C241.175 177.942 241.453 180.03 241.731 182.258C242.01 184.624 242.149 186.851 242.01 189.218C242.01 190.749 241.731 192.28 241.314 193.672C240.757 195.482 239.783 197.152 238.53 198.405C236.72 200.354 234.493 202.024 231.987 203.138C227.951 205.086 223.775 206.618 219.459 207.453C211.386 209.402 203.034 210.376 194.821 210.794L193.986 204.251C197.744 203.416 201.642 202.302 205.4 201.328C209.159 200.354 212.917 199.101 216.536 197.709C220.016 196.595 223.357 195.064 226.419 193.254C227.533 192.558 228.647 191.723 229.482 190.749C229.76 190.47 229.76 190.331 229.621 190.331C229.621 189.774 229.621 189.357 229.621 188.8C229.621 187.13 229.343 185.459 229.064 183.789C228.786 181.979 228.368 180.17 227.951 178.221C227.115 174.462 226.141 170.704 225.027 166.946C222.8 159.429 220.434 151.773 217.928 144.395L230.735 140.08Z" fill="#FFB573"/>
<path d="M178.117 207.035L178.952 210.098C179.509 212.046 181.179 213.438 183.267 213.438L188.835 213.578L187.861 200.632L182.154 201.328C179.648 201.606 177.839 203.834 177.978 206.339C177.978 206.618 177.978 206.757 178.117 207.035Z" fill="#FFB573"/>
<path d="M224.749 125.603C230.595 127.97 235.328 147.04 235.328 147.04L219.181 159.568C219.181 159.568 207.766 141.75 210.133 133.955C212.221 127.413 217.371 122.541 224.749 125.603Z" fill="#454545"/>
<g opacity="0.5">
<path opacity="0.5" d="M224.749 125.603C230.595 127.97 235.328 147.04 235.328 147.04L219.181 159.568C219.181 159.568 207.766 141.75 210.133 133.955C212.221 127.413 217.371 122.541 224.749 125.603Z" fill="#D68425"/>
</g>
<path d="M286.832 438.246H286.693C286.136 438.246 285.579 437.829 285.301 437.411C285.162 437.133 285.022 436.715 285.162 436.437C285.858 435.045 290.312 434.488 290.869 434.488C291.008 434.488 291.147 434.488 291.147 434.627C291.147 434.766 291.147 434.906 291.147 434.906C290.173 436.019 288.363 438.107 286.832 438.246ZM290.312 435.045C288.503 435.323 286.136 435.88 285.858 436.576C285.718 436.715 285.718 436.854 285.858 436.994C285.997 437.411 286.414 437.55 286.693 437.55C287.528 437.69 288.92 436.715 290.312 435.045Z" fill="#263238"/>
<path d="M290.73 434.906C289.198 435.045 286.275 434.349 285.579 433.235C285.301 432.818 285.44 432.261 285.858 431.982C286.136 431.704 286.554 431.426 287.111 431.426C288.92 431.426 291.286 434.21 291.286 434.349C291.286 434.488 291.286 434.488 291.286 434.627C291.286 434.766 291.147 434.766 291.008 434.766L290.73 434.906ZM286.832 432.122C286.554 432.122 286.414 432.261 286.136 432.4C285.858 432.678 285.858 432.818 285.997 432.957C286.414 433.653 288.781 434.349 290.312 434.349C289.477 433.514 288.085 432.122 286.832 432.122Z" fill="#263238"/>
<path d="M120.766 451.47C119.792 451.192 118.957 450.496 118.4 449.8C118.122 449.382 118.122 448.686 118.261 448.269C118.4 447.99 118.539 447.712 118.957 447.712C120.488 447.434 124.246 451.47 125.082 452.306C125.221 452.445 125.221 452.584 125.082 452.584C125.082 452.723 124.943 452.723 124.803 452.723C123.411 452.445 122.019 452.027 120.766 451.47ZM119.653 448.269C119.514 448.13 119.235 448.13 119.096 448.13C119.096 448.13 118.957 448.13 118.957 448.269C118.818 448.686 118.818 449.104 119.096 449.382C119.653 450.357 121.462 451.192 124.107 451.749C122.715 450.496 121.184 449.243 119.653 448.269Z" fill="#263238"/>
<path d="M124.664 452.584C124.664 452.584 124.525 452.584 124.664 452.584C123.272 451.192 121.184 447.434 121.88 446.32C122.019 446.042 122.437 445.763 123.133 446.042C125.917 446.877 125.082 452.306 125.082 452.445C125.082 452.584 124.942 452.584 124.942 452.723C124.803 452.584 124.664 452.584 124.664 452.584ZM123.272 446.598H123.133C122.854 446.459 122.576 446.598 122.576 446.598C122.158 447.294 123.411 450.218 124.664 451.61C124.664 450.357 124.803 447.155 123.272 446.598Z" fill="#263238"/>
<path d="M193.707 84.8176L191.619 83.4256C191.48 83.4256 192.176 85.6528 193.707 84.8176Z" fill="#263238"/>
</svg>
