<svg width="164" height="47" viewBox="0 0 164 47" fill="none" xmlns="http://www.w3.org/2000/svg">
<path d="M17.6395 14.5425C17.6884 13.2418 17.5784 7.37507 11.7718 4.73575C6.14929 2.22665 1.65248 3.99262 1.65248 3.99262C1.745 3.98562 1.83788 3.997 1.92505 4.02604C3.04681 4.18903 7.52459 5.0688 13.095 9.4329C13.095 9.4329 17.1578 12.2837 17.6409 14.5424" fill="#50BC22"/>
<path d="M2.99804 5.49058C3.44844 7.11378 6.49222 18.0456 16.3057 15.3233C16.4404 14.5516 15.8695 11.5716 13.1238 9.43723C7.51929 5.02105 3.01255 4.12963 1.88391 3.96436C2.19167 4.05435 2.68944 4.38336 2.99804 5.49058Z" fill="#66D836"/>
<path d="M33.6909 7.74545C33.6909 7.74545 28.6579 4.63664 23.4203 7.1032C18.1827 9.56976 19.2455 14.5468 19.2455 14.5468C20.0809 12.3313 22.3028 10.7977 22.3028 10.7977C26.2914 6.97805 33.6867 7.74574 33.6867 7.74574" fill="#50BC22"/>
<path d="M20.4191 15.0724C26.2502 17.1426 29.4825 12.9799 30.4553 10.9045C31.4925 8.6895 33.6947 7.80253 33.6947 7.80253C33.6947 7.80253 26.2755 7.04519 22.2777 10.8416C20.3631 12.7127 20.4077 14.5498 20.4238 15.0787" fill="#66D836"/>
<path d="M26.9696 33.3126C27.1777 33.2604 27.3489 33.1215 27.4312 32.9352C27.8791 31.9218 28.2686 30.9155 28.5721 29.9412C28.72 29.4666 28.2523 29.0397 27.7419 29.1677L11.3645 33.274C10.9526 33.3773 10.7343 33.7986 10.91 34.1622C11.2903 34.9493 11.699 35.7345 12.1232 36.5062C12.2727 36.7782 12.6053 36.9141 12.9211 36.835L26.9696 33.3126Z" fill="#F8931E"/>
<path d="M25.0161 37.6304C25.3039 37.1319 24.8142 36.5625 24.2292 36.7091L14.651 39.1107C14.2072 39.2219 13.9969 39.6969 14.2305 40.0671C15.8551 42.6416 17.4091 44.7789 18.2468 45.8951C18.5623 46.3155 19.2107 46.3155 19.5262 45.8951C20.617 44.4417 22.9221 41.2573 25.0161 37.6304Z" fill="#F8931E"/>
<path d="M29.2505 25.5226C29.2505 25.9043 29.0757 26.1769 28.7261 26.2859L10.1965 30.8574C9.84102 30.9465 9.4715 30.7628 9.36085 30.4344C9.06337 29.5514 8.83136 28.6907 8.68478 27.8705C8.62724 27.5486 8.84767 27.2443 9.18463 27.1599L27.89 22.4699C28.2294 22.3848 28.5861 22.5479 28.7005 22.8588C29.0714 23.8668 29.2505 24.4364 29.2505 25.5226Z" fill="#F8931E"/>
<path d="M8.83052 23.6149C8.70584 24.0713 9.1631 24.4558 9.64928 24.3339L25.9849 20.2381C26.4711 20.1162 26.6616 19.5692 26.3098 19.2324C26.282 19.2057 26.254 19.1792 26.2258 19.1528C24.2793 17.3314 21.6393 16.3082 18.8865 16.3082C16.1337 16.3082 13.4937 17.3314 11.5472 19.1528C10.219 20.3956 9.28802 21.9405 8.83052 23.6149Z" fill="#F8931E"/>
<path d="M45.4292 13.4099V35.583H53.8959C60.5494 35.583 64.4677 31.4496 64.4677 24.4119C64.4677 17.3743 60.5494 13.4099 53.8959 13.4099H45.4292ZM50.0698 17.236H53.3427C57.4301 17.236 59.735 19.7868 59.735 24.4273C59.735 29.2215 57.4916 31.7415 53.3427 31.7415H50.0698V17.236ZM73.3493 32.602C71.828 32.602 70.8139 31.8337 70.8139 30.6044C70.8139 29.4366 71.7666 28.6837 73.4415 28.5607L76.9142 28.3456V29.5442C76.9142 31.3266 75.3008 32.602 73.3493 32.602ZM71.8741 35.8442C73.9332 35.8442 75.9769 34.8147 76.8988 33.063H76.991V35.583H81.3242V24.2583C81.3242 20.9392 78.5737 18.7572 74.3481 18.7572C69.9841 18.7572 67.2643 20.9546 67.0953 24.1507H71.198C71.4132 22.9368 72.4734 22.107 74.1483 22.107C75.8386 22.107 76.9142 22.9982 76.9142 24.5348V25.6258L72.7654 25.8717C68.6627 26.1175 66.3578 27.8539 66.3578 30.8503C66.3578 33.8159 68.7395 35.8442 71.8741 35.8442ZM98.9491 31.7415H89.2531V13.4099H84.6126V35.583H98.9491V31.7415ZM108.63 35.9364C113.608 35.9364 116.789 32.7557 116.789 27.3315C116.789 21.9841 113.562 18.7572 108.63 18.7572C103.697 18.7572 100.47 21.9995 100.47 27.3315C100.47 32.7403 103.651 35.9364 108.63 35.9364ZM108.63 32.5098C106.417 32.5098 105.019 30.6505 105.019 27.3468C105.019 24.0739 106.448 22.1838 108.63 22.1838C110.812 22.1838 112.225 24.0739 112.225 27.3468C112.225 30.6505 110.827 32.5098 108.63 32.5098ZM123.765 25.718H123.704V13.4099H119.217V35.583H123.704V30.1434L124.872 28.8834L129.589 35.583H134.752L128.16 26.179L134.445 19.1106H129.358L123.765 25.718ZM142.312 32.602C140.791 32.602 139.777 31.8337 139.777 30.6044C139.777 29.4366 140.729 28.6837 142.404 28.5607L145.877 28.3456V29.5442C145.877 31.3266 144.263 32.602 142.312 32.602ZM140.837 35.8442C142.896 35.8442 144.94 34.8147 145.861 33.063H145.954V35.583H150.287V24.2583C150.287 20.9392 147.536 18.7572 143.311 18.7572C138.947 18.7572 136.227 20.9546 136.058 24.1507H140.161C140.376 22.9368 141.436 22.107 143.111 22.107C144.801 22.107 145.877 22.9982 145.877 24.5348V25.6258L141.728 25.8717C137.625 26.1175 135.32 27.8539 135.32 30.8503C135.32 33.8159 137.702 35.8442 140.837 35.8442ZM153.299 35.583H157.785V13.4099H153.299V35.583Z" fill="#414141"/>
</svg>
