<svg width="51" height="51" viewBox="0 0 51 51" fill="none" xmlns="http://www.w3.org/2000/svg">
<circle cx="25.5" cy="25.5" r="25.5" fill="white"/>
<path d="M22.4735 26.0602H24.9493C27.7261 26.0602 29.4633 27.4281 29.4496 29.8629C29.4359 31.9284 27.6987 33.4057 25.0998 33.4057C22.4735 33.4057 20.6268 32.0788 20.4764 29.986H18.1099C18.2878 33.2552 21.0098 35.5396 25.0998 35.5396C28.9709 35.5396 31.9528 33.1731 31.9528 29.7808C31.9528 26.9767 29.9968 25.1847 27.1242 24.9385V24.8838C29.6001 24.364 31.3099 22.6815 31.3099 20.233C31.3099 17.4152 29.0256 15.1445 25.0724 15.1445C21.3792 15.1445 18.7802 17.2921 18.5066 20.6434H20.873C21.0235 18.5095 22.747 17.2784 25.0724 17.2784C27.603 17.2784 28.8341 18.6053 28.8341 20.5613C28.8341 22.5311 27.1926 23.981 24.8399 23.981H22.4735V26.0602Z" fill="#66D836"/>
</svg>
